<svg xmlns="http://www.w3.org/2000/svg" viewBox="0 0 252 252" fill="#33ccff">
  <g transform="translate(0,252) scale(0.1,-0.1)">
    <path d="M0 2160 l0 -360 135 0 135 0 0 90 0 90 90 0 90 0 0 -90 0 -90 135 0 135 0 0 360 0 360 -360 0 -360 0 0 -360z"/>
    <path d="M900 2160 l0 -360 360 0 360 0 0 270 0 270 -90 0 -90 0 0 90 0 90 -270 0 -270 0 0 -360z"/>
    <path d="M1800 2250 l0 -270 90 0 90 0 0 -90 0 -90 180 0 180 0 0 90 0 90 90 0 90 0 0 270 0 270 -360 0 -360 0 0 -270z"/>
    <path d="M0 1260 l0 -360 360 0 360 0 0 360 0 360 -360 0 -360 0 0 -360z m450 0 l0 -90 -90 0 -90 0 0 90 0 90 90 0 90 0 0 -90z"/>
    <path d="M900 1260 l0 -360 360 0 360 0 0 360 0 360 -135 0 -135 0 0 -90 0 -90 -90 0 -90 0 0 90 0 90 -135 0 -135 0 0 -360z"/>
    <path d="M1980 1260 l0 -360 180 0 180 0 0 360 0 360 -180 0 -180 0 0 -360z"/>
    <path d="M0 540 l0 -180 90 0 90 0 0 -90 0 -90 -90 0 -90 0 0 -90 0 -90 360 0 360 0 0 180 0 180 -90 0 -90 0 0 90 0 90 90 0 90 0 0 90 0 90 -360 0 -360 0 0 -180z"/>
    <path d="M900 450 l0 -270 90 0 90 0 0 -90 0 -90 180 0 180 0 0 90 0 90 90 0 90 0 0 270 0 270 -360 0 -360 0 0 -270z"/>
    <path d="M1800 360 l0 -360 135 0 135 0 0 90 0 90 90 0 90 0 0 -90 0 -90 135 0 135 0 0 360 0 360 -360 0 -360 0 0 -360z"/>
  </g>
</svg>
